<?xml version="1.0" encoding="UTF-8" standalone="no"?>
<!-- Generator: Adobe Illustrator 18.0.0, SVG Export Plug-In . SVG Version: 6.00 Build 0)  -->

<svg
   xmlns:dc="http://purl.org/dc/elements/1.1/"
   xmlns:cc="http://creativecommons.org/ns#"
   xmlns:rdf="http://www.w3.org/1999/02/22-rdf-syntax-ns#"
   xmlns:svg="http://www.w3.org/2000/svg"
   xmlns="http://www.w3.org/2000/svg"
   xmlns:sodipodi="http://sodipodi.sourceforge.net/DTD/sodipodi-0.dtd"
   xmlns:inkscape="http://www.inkscape.org/namespaces/inkscape"
   version="1.1"
   id="Capa_1"
   x="0px"
   y="0px"
   viewBox="0 0 490.432 490.432"
   style="enable-background:new 0 0 490.432 490.432;"
   xml:space="preserve"
   width="512px"
   height="512px"
   inkscape:version="0.91 r13725"
   sodipodi:docname="play_filled.svg"><metadata
     id="metadata40"><rdf:RDF><cc:Work
         rdf:about=""><dc:format>image/svg+xml</dc:format><dc:type
           rdf:resource="http://purl.org/dc/dcmitype/StillImage" /><dc:title></dc:title></cc:Work></rdf:RDF></metadata><defs
     id="defs38" /><sodipodi:namedview
     pagecolor="#ffffff"
     bordercolor="#666666"
     borderopacity="1"
     objecttolerance="10"
     gridtolerance="10"
     guidetolerance="10"
     inkscape:pageopacity="0"
     inkscape:pageshadow="2"
     inkscape:window-width="1920"
     inkscape:window-height="1022"
     id="namedview36"
     showgrid="false"
     inkscape:zoom="0.921875"
     inkscape:cx="610.35843"
     inkscape:cy="77.470548"
     inkscape:window-x="0"
     inkscape:window-y="0"
     inkscape:window-maximized="1"
     inkscape:current-layer="Capa_1" /><g
     id="XMLID_273_"><polygon
       id="XMLID_277_"
       points="198.569,310.268 293.273,244.602 198.569,179.796  "
       fill="#191970" /><path
       id="XMLID_274_"
       d="M408.807,0H81.624C36.548,0,0,36.539,0,81.624v327.183c0,45.085,36.548,81.625,81.624,81.625h327.183   c45.076,0,81.625-36.54,81.625-81.625V81.624C490.432,36.539,453.883,0,408.807,0z M353.551,262.408L187.936,377.241   c-4.17,2.887-9.04,4.354-13.925,4.354c-3.874,0-7.764-0.908-11.32-2.773c-8.05-4.226-13.096-12.549-13.096-21.633V133.229   c0-9.053,5.014-17.377,13.032-21.602c3.58-1.879,7.485-2.82,11.383-2.82c4.838,0,9.661,1.434,13.797,4.272l165.632,113.364   c5.932,4.051,9.485,10.761,9.501,17.951C362.965,251.583,359.451,258.313,353.551,262.408z"
       fill="#191970" /></g><g
     id="g6" /><g
     id="g8" /><g
     id="g10" /><g
     id="g12" /><g
     id="g14" /><g
     id="g16" /><g
     id="g18" /><g
     id="g20" /><g
     id="g22" /><g
     id="g24" /><g
     id="g26" /><g
     id="g28" /><g
     id="g30" /><g
     id="g32" /><g
     id="g34" /><rect
     style="fill:#191970;fill-opacity:1"
     id="rect3378"
     width="293.01236"
     height="307.55908"
     x="102.86604"
     y="87.280273" /></svg>