<?xml version="1.0" standalone="no"?>
<!DOCTYPE svg PUBLIC "-//W3C//DTD SVG 20010904//EN"
 "http://www.w3.org/TR/2001/REC-SVG-20010904/DTD/svg10.dtd">
<svg version="1.0" xmlns="http://www.w3.org/2000/svg"
 width="260.000000pt" height="260.000000pt" viewBox="0 0 260.000000 260.000000"
 preserveAspectRatio="xMidYMid meet">
<metadata>
Created by potrace 1.11, written by Peter Selinger 2001-2013
</metadata>
<g transform="translate(0.000000,260.000000) scale(0.100000,-0.100000)"
fill="#000000" stroke="none">
<path d="M2322 2574 c-68 -30 -198 -138 -287 -237 -38 -43 -77 -86 -85 -95 -9
-9 -36 -42 -60 -72 -24 -30 -50 -60 -57 -67 -8 -6 -15 -15 -15 -20 -1 -16 -12
-38 -27 -58 -12 -15 -28 -20 -68 -21 -29 0 -53 4 -53 9 0 4 -4 6 -9 3 -4 -3
-21 -2 -37 3 -16 4 -42 4 -58 0 -19 -5 -33 -4 -42 6 -10 9 -23 11 -51 4 -51
-11 -53 -11 -47 4 3 10 -4 14 -25 15 -16 0 -39 5 -50 11 -14 8 -20 8 -23 -1
-3 -8 -21 -11 -47 -10 -24 2 -49 -2 -56 -8 -7 -6 -25 -8 -41 -6 -17 3 -41 -3
-66 -16 -29 -17 -41 -19 -50 -10 -16 16 -57 15 -88 -1 -14 -8 -37 -12 -50 -10
-14 3 -54 6 -90 9 -64 4 -66 5 -111 57 -47 53 -216 224 -261 262 -13 11 -59
45 -103 75 -44 30 -82 58 -85 61 -14 15 -86 38 -144 46 -118 16 -135 -91 -60
-377 14 -52 27 -105 29 -116 1 -12 12 -43 24 -69 12 -26 21 -51 21 -56 0 -5
11 -33 25 -64 14 -30 25 -70 25 -88 -1 -17 1 -41 3 -52 2 -11 1 -30 -4 -41 -4
-12 -3 -26 2 -31 6 -6 11 -43 13 -84 1 -55 -2 -77 -14 -89 -33 -36 -75 -85
-75 -90 0 -3 -14 -24 -31 -45 -45 -58 -48 -74 -23 -102 20 -20 21 -26 9 -48
-7 -14 -17 -25 -21 -25 -21 0 -35 -31 -33 -71 2 -55 12 -126 19 -149 20 -62
26 -152 13 -188 -5 -16 -1 -36 13 -67 11 -24 19 -52 18 -62 -4 -29 12 -84 41
-144 26 -50 27 -59 17 -98 -11 -41 -10 -45 11 -59 33 -22 181 -80 187 -74 3 3
5 0 5 -7 0 -7 3 -10 8 -8 4 3 24 -3 44 -13 21 -10 61 -24 90 -31 29 -7 55 -16
58 -19 5 -5 15 -8 50 -15 8 -2 15 -4 15 -5 0 -1 14 -4 30 -6 17 -3 37 -7 45
-11 8 -3 24 -7 35 -8 11 -1 38 -7 60 -13 22 -6 52 -13 67 -16 15 -2 32 -7 36
-10 5 -3 35 -8 66 -10 31 -3 61 -8 66 -11 5 -3 11 -1 15 5 4 6 12 7 18 3 7 -4
48 -8 92 -9 44 -1 80 -3 80 -4 0 -11 199 -17 213 -7 8 6 12 6 12 -1 0 -6 35
-1 89 14 72 20 97 22 137 15 27 -5 52 -7 56 -5 3 2 9 0 13 -6 4 -6 10 -8 15
-5 8 5 51 11 130 20 19 2 63 12 97 23 34 11 65 17 68 14 3 -3 5 1 5 8 0 7 3
11 6 7 3 -3 23 1 45 8 21 8 39 12 39 8 0 -3 7 0 15 7 8 7 15 10 15 7 0 -3 16
1 35 9 19 8 37 14 40 14 3 0 6 0 8 1 1 0 19 2 39 4 33 3 81 28 116 62 7 7 20
29 28 50 9 21 29 64 45 95 16 32 27 58 23 58 -4 0 -1 7 6 15 7 8 9 15 5 15 -4
0 -2 6 4 13 6 8 13 58 16 113 2 54 8 110 11 124 10 39 13 280 3 281 -5 1 -13
2 -19 3 -5 0 -10 4 -10 9 0 4 0 11 0 16 0 6 8 8 18 6 32 -6 42 8 33 45 -4 19
-4 51 0 70 5 23 3 43 -6 60 -30 54 -36 75 -28 90 11 18 5 50 -8 50 -5 0 -9 6
-9 13 0 36 -52 117 -94 146 -25 17 -49 31 -55 31 -6 0 -11 9 -11 21 0 11 -4
28 -10 38 -8 16 -10 41 -10 120 0 14 -5 28 -12 32 -7 4 -8 14 -3 25 5 11 10
28 12 39 6 39 9 50 16 63 5 6 6 16 3 21 -4 5 -2 11 4 13 10 3 18 27 26 78 2
14 15 83 29 153 49 254 48 377 -2 434 -28 31 -44 32 -101 7z"/>
</g>
</svg>
